<svg xmlns="http://www.w3.org/2000/svg" xmlns:xlink="http://www.w3.org/1999/xlink" version="1.1"
    id="idpabwxkij-Layer_1" x="0px" y="0px" viewBox="0 0 148.4 29.9"
    style="enable-background:new 0 0 148.4 29.9;" xml:space="preserve"><style type="text/css">
	.idpabwxkij-st0{fill:#003382;}
</style><g><g id="idpabwxkij-BEJIMAC"><g><path class="idpabwxkij-st0" d="M0,17.9c1.6,5.2,5.6,9.4,10.6,11.1V0.7L0,17.9z"></path><path class="idpabwxkij-st0" d="M28.3,11.9c-1.6-5.2-5.5-9.4-10.6-11.1v28.4L28.3,11.9L28.3,11.9z"></path></g></g><g id="idpabwxkij-Tekst"><g><path class="idpabwxkij-st0" d="M60,20.4c0,6-5,9.5-11.8,9.5S36.3,26.6,35.4,20h8c0.4,2.6,2.3,4,4.9,4c2.7,0,3.9-1,3.9-2.6     c0-5.6-16.5-1.3-16.5-12.4c0-5,4.1-8.9,11.3-8.9c6,0,11.3,2.9,12.1,9.6h-8.1c-0.5-2.5-1.9-3.7-4.3-3.7c-1.9,0-3.2,0.9-3.2,2.3     C43.6,13.6,60,8.8,60,20.4z"></path><path class="idpabwxkij-st0" d="M78.6,24.2H68.3l-1.6,4.8H59L69.2,0.7h9.1l10.1,28.4h-8.1L78.6,24.2L78.6,24.2z M70.3,18.5h6.4l-2.3-6.9     l-0.9-3.3l-0.9,3.3L70.3,18.5L70.3,18.5z"></path><path class="idpabwxkij-st0" d="M94.6,18.2l0.9,3.6l0.9-3.6l5.9-17.5h7.7L99.7,29.1h-9L80.6,0.7h8.1L94.6,18.2L94.6,18.2z"></path><path class="idpabwxkij-st0" d="M110.6,0.7h7.6v28.4h-7.6V0.7z"></path><path class="idpabwxkij-st0" d="M119.4,14.9c0-9.2,5.6-15,14.5-15s14.5,5.8,14.5,15s-5.6,14.9-14.5,14.9S119.4,24.1,119.4,14.9z M140.5,14.9     c0-5.5-2.4-8.8-6.7-8.8c-4.3,0-6.7,3.3-6.7,8.8s2.5,8.7,6.7,8.7C138.1,23.6,140.5,20.4,140.5,14.9z"></path></g></g></g></svg>